<?xml version="1.0" standalone="no"?>
<!DOCTYPE svg PUBLIC "-//W3C//DTD SVG 20010904//EN"
 "http://www.w3.org/TR/2001/REC-SVG-20010904/DTD/svg10.dtd">
<svg version="1.0" xmlns="http://www.w3.org/2000/svg"
 width="1293.000000pt" height="1293.000000pt" viewBox="0 0 1293.000000 1293.000000"
 preserveAspectRatio="xMidYMid meet">

<g transform="translate(0.000000,1293.000000) scale(0.100000,-0.100000)"
fill="#000000" stroke="none">
<path d="M5825 12379 c-114 -6 -172 -14 -240 -34 -234 -67 -447 -219 -597
-426 -26 -35 -100 -125 -165 -199 -130 -149 -148 -180 -187 -335 -39 -156
-103 -531 -92 -542 4 -4 58 76 99 147 14 25 57 128 96 229 98 254 122 294 260
432 129 129 299 269 326 269 46 0 129 -80 193 -185 33 -55 110 -237 317 -750
75 -187 157 -376 182 -420 131 -231 320 -482 665 -883 95 -111 169 -207 187
-243 31 -62 49 -133 75 -300 8 -53 29 -144 45 -203 31 -109 87 -421 117 -646
11 -81 17 -214 19 -380 2 -217 6 -271 24 -360 73 -349 238 -632 423 -726 48
-24 83 -28 38 -4 -28 15 -104 120 -142 195 -71 140 -141 364 -153 491 -7 70
-18 83 130 -154 136 -218 218 -333 298 -419 60 -64 114 -109 122 -101 2 2 -12
26 -31 54 -67 93 -251 430 -241 441 3 2 108 -14 233 -37 168 -30 246 -49 292
-70 34 -16 62 -34 62 -40 0 -6 -65 -100 -143 -208 -332 -456 -1445 -2065
-1604 -2317 -15 -25 -37 -48 -48 -50 -70 -15 -823 -116 -929 -125 -155 -12
-512 -12 -616 0 -41 4 -76 7 -78 5 -6 -5 19 -261 33 -350 22 -131 37 -167 134
-337 159 -277 414 -665 1031 -1568 414 -606 561 -834 580 -901 31 -105 63
-699 58 -1061 l-3 -247 85 5 c560 31 746 54 1135 139 437 97 974 275 1347 448
l96 45 6 83 c3 46 8 149 11 229 8 208 24 428 40 554 17 130 35 165 120 234 72
58 119 131 139 221 8 36 27 154 41 261 29 219 51 339 71 388 15 37 28 52 303
348 591 635 915 974 974 1016 l27 20 -4 -49 c-3 -26 -7 -190 -11 -363 -3 -173
-8 -335 -11 -360 -4 -30 -2 -42 4 -35 32 32 393 696 587 1080 150 296 215 443
215 487 0 16 -52 74 -177 198 -272 268 -347 369 -514 690 -155 299 -315 570
-432 730 -53 72 -52 71 -94 292 l-30 157 -174 333 c-240 462 -470 922 -566
1134 -79 173 -107 252 -173 472 -83 278 -388 913 -545 1137 -64 91 -82 132
-161 372 -75 229 -116 324 -181 428 -21 33 -53 105 -71 160 -47 140 -98 242
-187 375 -124 186 -338 444 -476 575 -337 320 -809 505 -1412 554 -144 12
-525 12 -752 0z"/>
<path d="M4724 8319 c3 -13 15 -96 26 -184 28 -217 38 -251 123 -422 128 -255
185 -386 231 -529 65 -203 78 -261 78 -341 0 -40 3 -73 7 -73 30 1 118 34 171
65 89 53 148 110 160 154 27 103 38 508 20 799 -14 223 -17 236 -82 297 -50
46 -154 112 -163 103 -2 -2 0 -58 5 -123 16 -216 22 -421 12 -405 -11 17 -103
314 -127 410 -9 36 -21 82 -26 103 l-10 37 -62 0 c-121 1 -247 41 -335 108
l-33 25 5 -24z"/>
</g>
</svg>
